<svg xmlns="http://www.w3.org/2000/svg" width="1920" height="1080" viewBox="0 0 1920 1080"><rect width="1920" height="1080" fill="#0e1116"/><rect x="0" y="0" width="1920" height="6" fill="#ff5d7d"/><text x="90" y="118" font-family="Helvetica, Arial, sans-serif" font-size="52" font-weight="650" fill="#e6ebf1" text-anchor="start">One molecule, Z-disc to M-band</text><text x="90" y="162" font-family="Helvetica, Arial, sans-serif" font-size="26" font-weight="400" fill="#98a4b3" text-anchor="start">Half-sarcomere at 2200 nm</text><rect x="130.00" y="470" width="37.73" height="38" fill="#ff5d7d" opacity="0.95"/><rect x="167.73" y="470" width="308.46" height="38" fill="#ff5d7d" opacity="0.72"/><text x="321.9597338200009" y="456" font-family="Helvetica, Arial, sans-serif" font-size="19" font-weight="400" fill="#98a4b3" text-anchor="middle">prox Ig</text><rect x="476.19" y="470" width="7.55" height="38" fill="#ff5d7d" opacity="0.95"/><rect x="483.75" y="470" width="38.89" height="38" fill="#ff5d7d" opacity="0.72"/><rect x="522.64" y="470" width="60.09" height="38" fill="#ff5d7d" opacity="0.95"/><text x="552.681988098819" y="456" font-family="Helvetica, Arial, sans-serif" font-size="19" font-weight="400" fill="#98a4b3" text-anchor="middle">dist Ig</text><rect x="582.73" y="470" width="935.64" height="38" fill="#ff5d7d" opacity="0.72"/><text x="1050.5454545454545" y="456" font-family="Helvetica, Arial, sans-serif" font-size="19" font-weight="400" fill="#98a4b3" text-anchor="middle">Aband super</text><rect x="1518.36" y="470" width="45.27" height="38" fill="#ff5d7d" opacity="0.95"/><rect x="1563.64" y="470" width="226.36" height="38" fill="#ff5d7d" opacity="0.72"/><text x="1676.818181818182" y="456" font-family="Helvetica, Arial, sans-serif" font-size="19" font-weight="400" fill="#98a4b3" text-anchor="middle">Mline</text><line x1="92.27" y1="330" x2="167.73" y2="330" stroke="#7aa2d8" stroke-width="3"/><line x1="92.27" y1="318" x2="92.27" y2="342" stroke="#7aa2d8" stroke-width="3"/><line x1="167.73" y1="318" x2="167.73" y2="342" stroke="#7aa2d8" stroke-width="3"/><text x="130" y="308" font-family="Helvetica, Arial, sans-serif" font-size="19" font-weight="400" fill="#98a4b3" text-anchor="middle">Z-disc · MEASURED</text><line x1="167.73" y1="330" x2="582.73" y2="330" stroke="#7aa2d8" stroke-width="3"/><line x1="167.73" y1="318" x2="167.73" y2="342" stroke="#7aa2d8" stroke-width="3"/><line x1="582.73" y1="318" x2="582.73" y2="342" stroke="#7aa2d8" stroke-width="3"/><text x="375.22727272727275" y="308" font-family="Helvetica, Arial, sans-serif" font-size="19" font-weight="400" fill="#98a4b3" text-anchor="middle">I-band · STRONGLY INFERRED</text><line x1="582.73" y1="330" x2="1790.00" y2="330" stroke="#7aa2d8" stroke-width="3"/><line x1="582.73" y1="318" x2="582.73" y2="342" stroke="#7aa2d8" stroke-width="3"/><line x1="1790.00" y1="318" x2="1790.00" y2="342" stroke="#7aa2d8" stroke-width="3"/><text x="1186.3636363636365" y="308" font-family="Helvetica, Arial, sans-serif" font-size="19" font-weight="400" fill="#98a4b3" text-anchor="middle">A-band · half · MEASURED</text><line x1="763.06" y1="604" x2="1518.36" y2="604" stroke="#7aa2d8" stroke-width="3"/><line x1="763.06" y1="592" x2="763.06" y2="616" stroke="#7aa2d8" stroke-width="3"/><line x1="1518.36" y1="592" x2="1518.36" y2="616" stroke="#7aa2d8" stroke-width="3"/><text x="1140.7136363636364" y="582" font-family="Helvetica, Arial, sans-serif" font-size="19" font-weight="400" fill="#98a4b3" text-anchor="middle">C-zone · MEASURED</text><line x1="1669.27" y1="604" x2="1910.73" y2="604" stroke="#7aa2d8" stroke-width="3"/><line x1="1669.27" y1="592" x2="1669.27" y2="616" stroke="#7aa2d8" stroke-width="3"/><line x1="1910.73" y1="592" x2="1910.73" y2="616" stroke="#7aa2d8" stroke-width="3"/><text x="1790" y="582" font-family="Helvetica, Arial, sans-serif" font-size="19" font-weight="400" fill="#98a4b3" text-anchor="middle">bare zone · STRONGLY INFERRED</text><line x1="1790.00" y1="578" x2="1790.00" y2="630" stroke="#dfe7f2" stroke-width="3"/><text x="1790" y="656" font-family="Helvetica, Arial, sans-serif" font-size="19" font-weight="400" fill="#98a4b3" text-anchor="middle">M-band center</text><text x="130" y="544" font-family="Helvetica, Arial, sans-serif" font-size="20" font-weight="400" fill="#ff5d7d" text-anchor="start">N · Z-disc anchor</text><text x="1790" y="544" font-family="Helvetica, Arial, sans-serif" font-size="20" font-weight="400" fill="#ff5d7d" text-anchor="end">C · M-band anchor</text><text x="130" y="920" font-family="Helvetica, Arial, sans-serif" font-size="20" font-weight="400" fill="#98a4b3" text-anchor="start">0 nm</text><text x="1790" y="920" font-family="Helvetica, Arial, sans-serif" font-size="20" font-weight="400" fill="#98a4b3" text-anchor="end">1100 nm</text><line x1="90" y1="972" x2="1830" y2="972" stroke="#2b3440" stroke-width="1"/><text x="90" y="1002" font-family="Helvetica, Arial, sans-serif" font-size="19" font-weight="400" fill="#c9b989" text-anchor="start">Band boundaries follow the same geometry the scene draws; the smooth three-dimensional path is a schematic proxy.</text></svg>
